<svg version="1.1" xmlns="http://www.w3.org/2000/svg" viewBox="0 0 673.8604838520005 161.03964822097623" width="673.8604838520005" height="161.03964822097623">
  <!-- svg-source:excalidraw -->
  
  <defs>
    <style class="style-fonts">
      @font-face {
        font-family: "Virgil";
        src: url("https://excalidraw.com/Virgil.woff2");
      }
      @font-face {
        font-family: "Cascadia";
        src: url("https://excalidraw.com/Cascadia.woff2");
      }
      @font-face {
        font-family: "Assistant";
        src: url("https://excalidraw.com/Assistant-Regular.woff2");
      }
    </style>
    
  </defs>
  <rect x="0" y="0" width="673.8604838520005" height="161.03964822097623" fill="#ffffff"></rect><g stroke-linecap="round" transform="translate(118.73721269528642 54.80705450485766) rotate(0 38.06157898807783 38.0615789880776)"><path d="M0 0 C17.92 -1.28, 34.99 1.57, 76.12 0 M0 0 C21.07 -0.92, 41.48 -0.62, 76.12 0 M76.12 0 C74.93 16.22, 77.25 31.27, 76.12 76.12 M76.12 0 C76.92 22.57, 76.46 44.19, 76.12 76.12 M76.12 76.12 C52.09 78.13, 33.08 76.22, 0 76.12 M76.12 76.12 C45.55 77.48, 15.77 76.19, 0 76.12 M0 76.12 C-0.71 56.66, 0.76 40.27, 0 0 M0 76.12 C-0.2 56.61, 1.02 38.13, 0 0" stroke="#000000" stroke-width="1" fill="none"></path></g><g stroke-linecap="round"><g transform="translate(118.73721269528642 53.68759629932538) rotate(0 48.13670283786314 -11.19458205531555)"><path d="M0 0 C5.24 -4.4, 10.8 -9.4, 24.63 -24.63 M0 0 C7.64 -8.25, 15.08 -14.93, 24.63 -24.63 M24.63 -24.63 C39.39 -25.14, 53.13 -22.69, 96.27 -22.39 M24.63 -24.63 C41.17 -24.68, 57.78 -23.59, 96.27 -22.39 M96.27 -22.39 C90.21 -14.09, 83.59 -7.04, 75 2.24 M96.27 -22.39 C88.16 -13.82, 80.54 -4.49, 75 2.24 M75 2.24 C57.99 3.11, 38.02 -0.58, 0 0 M75 2.24 C48.66 1, 21.69 -0.61, 0 0" stroke="#000000" stroke-width="1" fill="none"></path></g></g><mask></mask><g stroke-linecap="round"><g transform="translate(195.9798288769739 132.04967068654514) rotate(0 8.955665644253713 -50.93534835169157)"><path d="M0 0 C3.77 -4.26, 8.99 -11.49, 20.15 -27.99 M0 0 C3.78 -5.38, 8.24 -13.56, 20.15 -27.99 M20.15 -27.99 C19.84 -49.53, 18.62 -72.49, 20.15 -101.87 M20.15 -27.99 C20.12 -52.1, 20.58 -77.56, 20.15 -101.87 M20.15 -101.87 C13.55 -92.51, 4.11 -81.49, -2.24 -73.88 M20.15 -101.87 C10.65 -90.62, 1.74 -80.09, -2.24 -73.88 M-2.24 -73.88 C-2.3 -55.82, 0.46 -36.29, 0 0 M-2.24 -73.88 C-1.04 -56.54, -1.57 -38.01, 0 0" stroke="#000000" stroke-width="1" fill="none"></path></g></g><mask></mask><g stroke-linecap="round"><g transform="translate(29.5 37.845307088857226) rotate(0 41.5 0)"><path d="M0 0 C13.83 0, 69.17 0, 83 0 M0 0 C13.83 0, 69.17 0, 83 0" stroke="#1e1e1e" stroke-width="4" fill="none"></path></g></g><mask></mask><g stroke-linecap="round"><g transform="translate(10 65.84530708885723) rotate(0 41.5 0)"><path d="M0 0 C13.83 0, 69.17 0, 83 0 M0 0 C13.83 0, 69.17 0, 83 0" stroke="#1e1e1e" stroke-width="4" fill="none"></path></g></g><mask></mask><g stroke-linecap="round"><g transform="translate(10.000000138031737 118.71816990741354) rotate(0 41.5 0)"><path d="M0 0 C13.83 0, 69.17 0, 83 0 M0 0 C13.83 0, 69.17 0, 83 0" stroke="#1e1e1e" stroke-width="4" fill="none"></path></g></g><mask></mask><g stroke-linecap="round"><g transform="translate(237.16593080463645 10) rotate(0 0 70.51982411048812)"><path d="M0 0 C0 39.44, 0 78.89, 0 141.04 M0 0 C0 37.53, 0 75.06, 0 141.04" stroke="#1e1e1e" stroke-width="4" fill="none"></path></g></g><mask></mask><g transform="translate(258.01684290346066 60.73011517247869) rotate(0 202.9218204742699 19.789708968157356)"><text x="0" y="0" font-family="Cascadia, Segoe UI Emoji" font-size="32.98284828026227px" fill="#6741d9" text-anchor="start" style="white-space: pre;" direction="ltr" dominant-baseline="text-before-edge">Minecraft Holy Client</text></g></svg>
